<svg width="209" height="69" viewBox="0 0 209 69" fill="none" xmlns="http://www.w3.org/2000/svg">
<path d="M16.0347 42.5848V43.0526H14.8651H14.0464H12.292H10.8885H9.60192H8.7832V19.193L35.099 2L47.2627 9.7193V7.02924H54.5142V14.3977L61.9996 19.193V60.7134H26.9119V59.6608V58.3743V57.3216V56.386V55.6842V55.3333V54.9825V54.2807V53.6959L54.1633 53.5789V23.7544L35.099 11.2398L16.0347 23.7544V42.5848Z" fill="#2196F3"/>
<path d="M16.0347 43.0526V23.7544L35.099 11.2398L54.1633 23.7544V53.5789L26.9119 53.6959V54.2807V54.9825V55.6842V55.3333V56.386V57.3216V58.3743V59.6608V60.7134H61.9996V19.193L54.5142 14.3977V7.02924H47.2627V9.7193L35.099 2L8.7832 19.193V43.0526H9.60192H10.8885H12.292H14.0464H14.8651H16.0347ZM16.0347 43.0526V42.5848" stroke="#2196F3" stroke-width="2"/>
<circle cx="15.0994" cy="54.3978" r="13.8494" fill="#2196F3" stroke="white" stroke-width="1.5"/>
<ellipse cx="11.474" cy="58.7254" rx="4.32749" ry="4.32749" fill="white"/>
<path d="M38.5625 25.7939L20.2056 43.7212L25.9691 49.802L28.5924 47.1909L28.7767 42.7015L33.145 42.7393L33.2656 38.3518L37.5512 38.4087L37.7355 33.9194L42.2885 34.0017L44.4088 31.8555L44.7012 25.9461L38.5625 25.7939Z" fill="#2196F3"/>
<path d="M20.2056 43.7212L19.8562 43.3635L19.5038 43.7076L19.8427 44.0652L20.2056 43.7212ZM38.5625 25.7939L38.5749 25.294L38.3641 25.2888L38.2132 25.4361L38.5625 25.7939ZM44.7012 25.9461L45.2006 25.9708L45.2259 25.459L44.7136 25.4463L44.7012 25.9461ZM44.4088 31.8555L44.7645 32.2069L44.8988 32.071L44.9082 31.8802L44.4088 31.8555ZM42.2885 34.0017L42.2795 34.5016L42.4937 34.5055L42.6442 34.3531L42.2885 34.0017ZM37.7355 33.9194L37.7445 33.4194L37.2559 33.4106L37.2359 33.8989L37.7355 33.9194ZM37.5512 38.4087L37.5446 38.9087L38.0309 38.9152L38.0508 38.4292L37.5512 38.4087ZM33.2656 38.3518L33.2723 37.8519L32.7794 37.8453L32.7658 38.3381L33.2656 38.3518ZM33.145 42.7393L33.1407 43.2393L33.6314 43.2436L33.6449 42.7531L33.145 42.7393ZM28.7767 42.7015L28.781 42.2015L28.2969 42.1974L28.2771 42.681L28.7767 42.7015ZM28.5924 47.1909L28.9451 47.5453L29.084 47.4071L29.092 47.2114L28.5924 47.1909ZM25.9691 49.802L25.6062 50.146L25.9587 50.5178L26.3218 50.1564L25.9691 49.802ZM20.5549 44.0789L38.9119 26.1516L38.2132 25.4361L19.8562 43.3635L20.5549 44.0789ZM38.5501 26.2937L44.6888 26.446L44.7136 25.4463L38.5749 25.294L38.5501 26.2937ZM44.2018 25.9214L43.9094 31.8308L44.9082 31.8802L45.2006 25.9708L44.2018 25.9214ZM44.0531 31.5041L41.9328 33.6503L42.6442 34.3531L44.7645 32.2069L44.0531 31.5041ZM42.2976 33.5018L37.7445 33.4194L37.7264 34.4193L42.2795 34.5016L42.2976 33.5018ZM37.2359 33.8989L37.0516 38.3882L38.0508 38.4292L38.235 33.9399L37.2359 33.8989ZM37.5579 37.9088L33.2723 37.8519L33.259 38.8518L37.5446 38.9087L37.5579 37.9088ZM32.7658 38.3381L32.6452 42.7256L33.6449 42.7531L33.7654 38.3656L32.7658 38.3381ZM33.1494 42.2393L28.781 42.2015L28.7723 43.2015L33.1407 43.2393L33.1494 42.2393ZM28.2771 42.681L28.0928 47.1704L29.092 47.2114L29.2762 42.722L28.2771 42.681ZM28.2397 46.8365L25.6164 49.4476L26.3218 50.1564L28.9451 47.5453L28.2397 46.8365ZM26.332 49.458L20.5685 43.3772L19.8427 44.0652L25.6062 50.146L26.332 49.458Z" fill="#2196F3"/>
<path d="M76.586 21.128C78.224 21.128 79.61 21.407 80.744 21.965C81.878 22.505 82.742 23.279 83.336 24.287C83.93 25.277 84.227 26.456 84.227 27.824C84.227 28.634 84.101 29.453 83.849 30.281C83.615 31.091 83.228 31.829 82.688 32.495C82.166 33.161 81.455 33.701 80.555 34.115C79.673 34.511 78.584 34.709 77.288 34.709H74.48V41H70.565V21.128H76.586ZM77.261 30.902C77.855 30.902 78.35 30.803 78.746 30.605C79.142 30.389 79.448 30.128 79.664 29.822C79.898 29.498 80.06 29.165 80.15 28.823C80.258 28.481 80.312 28.184 80.312 27.932C80.312 27.734 80.276 27.473 80.204 27.149C80.15 26.807 80.024 26.465 79.826 26.123C79.628 25.781 79.322 25.493 78.908 25.259C78.512 25.025 77.972 24.908 77.288 24.908H74.48V30.902H77.261ZM97.801 21.128C99.043 21.128 100.15 21.29 101.122 21.614C102.094 21.92 102.904 22.37 103.552 22.964C104.218 23.54 104.722 24.242 105.064 25.07C105.406 25.88 105.577 26.798 105.577 27.824C105.577 28.634 105.451 29.444 105.199 30.254C104.965 31.064 104.569 31.802 104.011 32.468C103.471 33.134 102.751 33.674 101.851 34.088C100.951 34.484 99.835 34.682 98.503 34.682H95.695V41H91.78V21.128H97.801ZM98.476 30.902C99.07 30.902 99.565 30.803 99.961 30.605C100.357 30.407 100.663 30.155 100.879 29.849C101.113 29.543 101.275 29.228 101.365 28.904C101.473 28.562 101.527 28.247 101.527 27.959C101.527 27.743 101.491 27.473 101.419 27.149C101.365 26.807 101.239 26.465 101.041 26.123C100.843 25.781 100.537 25.493 100.123 25.259C99.727 25.025 99.187 24.908 98.503 24.908H95.695V30.902H98.476ZM102.148 33.332L107.062 41H102.499L97.477 33.44L102.148 33.332ZM114.34 21.128H118.255V41H114.34V21.128ZM130.431 21.128L136.236 35.438L133.968 34.979L139.233 21.128H143.877L134.805 41.918L125.733 21.128H130.431ZM146.408 41L155.372 20.345H155.588L164.552 41H160.016L154.292 26.474L157.127 24.53L150.269 41H146.408ZM152.537 33.818H158.504L159.881 37.112H151.322L152.537 33.818ZM168.54 21.128H181.932V24.908H177.099V41H173.184V24.908H168.54V21.128ZM189.761 21.128H203.315V24.908H193.676V29.147H202.208V32.927H193.676V37.22H203.693V41H189.761V21.128Z" fill="#21201F"/>
<path d="M76.77 54.918C76.77 54.2087 76.9053 53.5413 77.176 52.916C77.4467 52.2907 77.82 51.7353 78.296 51.25C78.772 50.7647 79.3227 50.3867 79.948 50.116C80.5827 49.836 81.2593 49.696 81.978 49.696C82.6873 49.696 83.3547 49.836 83.98 50.116C84.6147 50.3867 85.17 50.7647 85.646 51.25C86.1313 51.7353 86.5093 52.2907 86.78 52.916C87.06 53.5413 87.2 54.2087 87.2 54.918C87.2 55.6367 87.06 56.3087 86.78 56.934C86.5093 57.5593 86.1313 58.1147 85.646 58.6C85.17 59.076 84.6147 59.4493 83.98 59.72C83.3547 59.9813 82.6873 60.112 81.978 60.112C81.25 60.112 80.5733 59.9813 79.948 59.72C79.3227 59.4493 78.772 59.0807 78.296 58.614C77.82 58.138 77.4467 57.5873 77.176 56.962C76.9053 56.3273 76.77 55.646 76.77 54.918ZM78.45 54.918C78.45 55.422 78.5387 55.8933 78.716 56.332C78.9027 56.7707 79.1593 57.158 79.486 57.494C79.8127 57.8207 80.1907 58.0773 80.62 58.264C81.0493 58.4507 81.516 58.544 82.02 58.544C82.5053 58.544 82.958 58.4507 83.378 58.264C83.8073 58.0773 84.1807 57.8207 84.498 57.494C84.8153 57.158 85.0627 56.7707 85.24 56.332C85.4267 55.8933 85.52 55.422 85.52 54.918C85.52 54.4047 85.4267 53.9287 85.24 53.49C85.0533 53.0513 84.8013 52.664 84.484 52.328C84.1667 51.992 83.7933 51.7307 83.364 51.544C82.9347 51.3573 82.4727 51.264 81.978 51.264C81.4833 51.264 81.0213 51.3573 80.592 51.544C80.1627 51.7307 79.7847 51.992 79.458 52.328C79.1407 52.664 78.8933 53.056 78.716 53.504C78.5387 53.9427 78.45 54.414 78.45 54.918ZM93.6606 49.808C94.4352 49.808 95.0979 49.9387 95.6486 50.2C96.1992 50.4613 96.6192 50.8347 96.9086 51.32C97.2072 51.8053 97.3566 52.3933 97.3566 53.084C97.3566 53.4853 97.2912 53.8867 97.1606 54.288C97.0392 54.6893 96.8432 55.0533 96.5726 55.38C96.3112 55.7067 95.9566 55.9727 95.5086 56.178C95.0699 56.374 94.5286 56.472 93.8846 56.472H92.4146V60H90.7766V49.808H93.6606ZM93.8846 54.89C94.2392 54.89 94.5379 54.8293 94.7806 54.708C95.0232 54.5867 95.2099 54.4327 95.3406 54.246C95.4806 54.0593 95.5786 53.868 95.6346 53.672C95.6999 53.4667 95.7326 53.2847 95.7326 53.126C95.7326 52.958 95.7046 52.776 95.6486 52.58C95.5926 52.3747 95.4992 52.1833 95.3686 52.006C95.2379 51.8193 95.0559 51.67 94.8226 51.558C94.5892 51.4367 94.2906 51.376 93.9266 51.376H92.4146V54.89H93.8846ZM100.735 49.808H107.497V51.376H102.373V54.092H106.937V55.674H102.373V58.432H107.693V60H100.735V49.808ZM120.31 60.364L112.484 52.776L112.96 52.972L113.002 60H111.35V49.458H111.42L119.134 57.046L118.756 56.934L118.728 49.808H120.352V60.364H120.31ZM138.735 49.808V60H137.097V55.674H132.085V60H130.447V49.808H132.085V54.106H137.097V49.808H138.735ZM142.305 54.918C142.305 54.2087 142.44 53.5413 142.711 52.916C142.981 52.2907 143.355 51.7353 143.831 51.25C144.307 50.7647 144.857 50.3867 145.483 50.116C146.117 49.836 146.794 49.696 147.513 49.696C148.222 49.696 148.889 49.836 149.515 50.116C150.149 50.3867 150.705 50.7647 151.181 51.25C151.666 51.7353 152.044 52.2907 152.315 52.916C152.595 53.5413 152.735 54.2087 152.735 54.918C152.735 55.6367 152.595 56.3087 152.315 56.934C152.044 57.5593 151.666 58.1147 151.181 58.6C150.705 59.076 150.149 59.4493 149.515 59.72C148.889 59.9813 148.222 60.112 147.513 60.112C146.785 60.112 146.108 59.9813 145.483 59.72C144.857 59.4493 144.307 59.0807 143.831 58.614C143.355 58.138 142.981 57.5873 142.711 56.962C142.44 56.3273 142.305 55.646 142.305 54.918ZM143.985 54.918C143.985 55.422 144.073 55.8933 144.251 56.332C144.437 56.7707 144.694 57.158 145.021 57.494C145.347 57.8207 145.725 58.0773 146.155 58.264C146.584 58.4507 147.051 58.544 147.555 58.544C148.04 58.544 148.493 58.4507 148.913 58.264C149.342 58.0773 149.715 57.8207 150.033 57.494C150.35 57.158 150.597 56.7707 150.775 56.332C150.961 55.8933 151.055 55.422 151.055 54.918C151.055 54.4047 150.961 53.9287 150.775 53.49C150.588 53.0513 150.336 52.664 150.019 52.328C149.701 51.992 149.328 51.7307 148.899 51.544C148.469 51.3573 148.007 51.264 147.513 51.264C147.018 51.264 146.556 51.3573 146.127 51.544C145.697 51.7307 145.319 51.992 144.993 52.328C144.675 52.664 144.428 53.056 144.251 53.504C144.073 53.9427 143.985 54.414 143.985 54.918ZM157.781 56.332C157.781 56.7333 157.884 57.102 158.089 57.438C158.304 57.7647 158.584 58.0307 158.929 58.236C159.275 58.432 159.662 58.53 160.091 58.53C160.539 58.53 160.941 58.432 161.295 58.236C161.65 58.0307 161.93 57.7647 162.135 57.438C162.341 57.102 162.443 56.7333 162.443 56.332V49.808H164.053V56.374C164.053 57.1113 163.876 57.7647 163.521 58.334C163.167 58.894 162.691 59.3327 162.093 59.65C161.496 59.958 160.829 60.112 160.091 60.112C159.363 60.112 158.701 59.958 158.103 59.65C157.506 59.3327 157.03 58.894 156.675 58.334C156.33 57.7647 156.157 57.1113 156.157 56.374V49.808H157.781V56.332ZM173.436 51.88C173.072 51.6933 172.685 51.5347 172.274 51.404C171.864 51.264 171.472 51.194 171.098 51.194C170.594 51.194 170.193 51.306 169.894 51.53C169.605 51.754 169.46 52.062 169.46 52.454C169.46 52.734 169.563 52.9813 169.768 53.196C169.974 53.4013 170.235 53.5833 170.552 53.742C170.87 53.8913 171.206 54.036 171.56 54.176C171.868 54.288 172.172 54.4233 172.47 54.582C172.778 54.7313 173.054 54.918 173.296 55.142C173.539 55.366 173.73 55.646 173.87 55.982C174.02 56.3087 174.094 56.7147 174.094 57.2C174.094 57.732 173.959 58.222 173.688 58.67C173.418 59.1087 173.03 59.4587 172.526 59.72C172.022 59.9813 171.406 60.112 170.678 60.112C170.258 60.112 169.843 60.0653 169.432 59.972C169.031 59.8787 168.648 59.7527 168.284 59.594C167.92 59.426 167.584 59.2393 167.276 59.034L168.004 57.76C168.228 57.928 168.485 58.082 168.774 58.222C169.064 58.362 169.362 58.474 169.67 58.558C169.978 58.6327 170.268 58.67 170.538 58.67C170.828 58.67 171.112 58.6233 171.392 58.53C171.682 58.4367 171.92 58.2827 172.106 58.068C172.302 57.8533 172.4 57.5687 172.4 57.214C172.4 56.9247 172.316 56.6773 172.148 56.472C171.98 56.2667 171.761 56.0893 171.49 55.94C171.229 55.7813 170.94 55.6413 170.622 55.52C170.305 55.3987 169.978 55.2633 169.642 55.114C169.316 54.9647 169.012 54.7827 168.732 54.568C168.452 54.344 168.224 54.0733 168.046 53.756C167.869 53.4387 167.78 53.0467 167.78 52.58C167.78 52.02 167.911 51.5347 168.172 51.124C168.434 50.7133 168.793 50.3867 169.25 50.144C169.717 49.9013 170.254 49.7707 170.86 49.752C171.579 49.752 172.19 49.8407 172.694 50.018C173.208 50.186 173.66 50.3913 174.052 50.634L173.436 51.88ZM177.637 49.808H184.399V51.376H179.275V54.092H183.839V55.674H179.275V58.432H184.595V60H177.637V49.808Z" fill="#21201F"/>
</svg>
